PathFileType	4	(X/Y/Z)	C:/Users/empri/Downloads/Take 2024-05-09 02.19.22 PM.trc
DataRate	CameraRate	NumFrames	NumMarkers	Units	OrigDataRate	OrigDataStartFrame	OrigNumFrames
240	240	26	9	mm	240	0	830
Frame#	Time	C7	CLAV	RELB	RFIN	RFRM	RSHO	RUPA	RWRA	RWRB
X1	Y1	Z1	X2	Y2	Z2	X3	Y3	Z3	X4	Y4	Z4	X5	Y5	Z5	X6	Y6	Z6	X7	Y7	Z7	X8	Y8	Z8	X9	Y9	Z9
0	0	-115.189	1542.2	-46.9934	44.4939	1365.69	-142.831	92.758	1147.71	144.424	168.476	843.4	42.8085	97.3903	1023.32	162.226	34.4135	1483.5	67.2327	64.2239	1324.59	137.836	121.491	919.656	50.5544	84.2833	889.84	134.749
1	0.004	-115.183	1542.2	-46.9913	44.483	1365.68	-142.82	92.7579	1147.71	144.443	168.491	843.388	42.836	97.3944	1023.3	162.261	34.3981	1483.5	67.2798	64.2244	1324.59	137.863	121.503	919.634	50.5912	84.2927	889.843	134.78
2	0.008	-115.183	1542.2	-46.994	44.4785	1365.67	-142.813	92.7574	1147.7	144.453	168.504	843.376	42.8792	97.3974	1023.3	162.281	34.4031	1483.49	67.2486	64.2225	1324.59	137.864	121.509	919.613	50.6184	84.2942	889.831	134.803
3	0.013	-115.191	1542.19	-46.9945	44.4782	1365.67	-142.813	92.7654	1147.7	144.465	168.523	843.364	42.9186	97.4006	1023.3	162.3	34.3947	1483.49	67.2797	64.2161	1324.58	137.859	121.532	919.606	50.6485	84.2975	889.811	134.811
4	0.017	-115.19	1542.19	-47.0049	44.4764	1365.68	-142.814	92.7646	1147.7	144.469	168.537	843.353	42.9563	97.4045	1023.3	162.312	34.4019	1483.48	67.2373	64.2137	1324.58	137.858	121.549	919.608	50.6661	84.2972	889.799	134.811
5	0.021	-115.185	1542.19	-47.0125	44.4735	1365.68	-142.81	92.7646	1147.71	144.478	168.553	843.349	42.9782	97.403	1023.31	162.333	34.4054	1483.48	67.2353	64.212	1324.59	137.855	121.563	919.604	50.684	84.3057	889.794	134.816
6	0.025	-115.181	1542.19	-47.0157	44.4718	1365.68	-142.811	92.7686	1147.71	144.491	168.558	843.354	43.0166	97.4161	1023.32	162.359	34.407	1483.48	67.2422	64.2076	1324.59	137.861	121.572	919.603	50.7097	84.3116	889.791	134.832
7	0.029	-115.179	1542.19	-47.0173	44.4696	1365.68	-142.806	92.7661	1147.72	144.507	168.574	843.359	43.049	97.4219	1023.33	162.4	34.404	1483.48	67.2484	64.2131	1324.6	137.878	121.579	919.597	50.7431	84.3209	889.789	134.859
8	0.033	-115.175	1542.18	-47.0115	44.4646	1365.68	-142.804	92.7699	1147.73	144.516	168.576	843.359	43.0769	97.4148	1023.33	162.413	34.4118	1483.48	67.2528	64.2092	1324.59	137.876	121.587	919.599	50.7702	84.3241	889.779	134.879
9	0.038	-115.175	1542.18	-47.0111	44.4652	1365.67	-142.805	92.7765	1147.73	144.529	168.593	843.358	43.1086	97.415	1023.34	162.43	34.4113	1483.48	67.2426	64.2081	1324.58	137.873	121.613	919.614	50.8013	84.3375	889.792	134.906
10	0.042	-115.171	1542.19	-47.0114	44.4692	1365.68	-142.809	92.7765	1147.73	144.534	168.607	843.362	43.1351	97.4204	1023.34	162.438	34.4209	1483.49	67.243	64.2135	1324.58	137.865	121.625	919.622	50.815	84.3461	889.797	134.92
11	0.046	-115.157	1542.2	-47.0039	44.4668	1365.67	-142.813	92.7833	1147.73	144.537	168.609	843.379	43.1591	97.4403	1023.33	162.452	34.4303	1483.49	67.2391	64.2202	1324.58	137.863	121.638	919.615	50.8345	84.364	889.817	134.954
12	0.05	-115.153	1542.2	-47.0002	44.4617	1365.67	-142.812	92.7781	1147.72	144.553	168.62	843.381	43.1821	97.4581	1023.33	162.478	34.4348	1483.48	67.2419	64.2214	1324.59	137.877	121.635	919.598	50.8637	84.3754	889.822	134.975
13	0.054	-115.149	1542.21	-47.0008	44.4587	1365.67	-142.814	92.8012	1147.74	144.572	168.647	843.378	43.1982	97.4568	1023.34	162.503	34.4341	1483.47	67.2422	64.2212	1324.59	137.884	121.634	919.589	50.8772	84.3833	889.831	135.002
14	0.058	-115.147	1542.22	-47.0034	44.4499	1365.67	-142.816	92.7793	1147.73	144.575	168.657	843.385	43.2212	97.4605	1023.35	162.513	34.4342	1483.47	67.2344	64.2277	1324.59	137.885	121.637	919.581	50.9005	84.3916	889.824	135.018
15	0.063	-115.139	1542.21	-46.9992	44.4537	1365.67	-142.82	92.7868	1147.73	144.592	168.677	843.389	43.252	97.4634	1023.34	162.529	34.4404	1483.46	67.2255	64.2309	1324.59	137.884	121.645	919.585	50.9284	84.3994	889.821	135.033
16	0.067	-115.139	1542.21	-47.0065	44.4505	1365.67	-142.824	92.8102	1147.73	144.619	168.692	843.395	43.2654	97.4715	1023.34	162.541	34.4473	1483.46	67.2191	64.2329	1324.59	137.881	121.658	919.594	50.9392	84.4069	889.82	135.043
17	0.071	-115.14	1542.22	-47.0105	44.4423	1365.67	-142.826	92.8159	1147.74	144.63	168.699	843.397	43.2895	97.4789	1023.35	162.554	34.4531	1483.47	67.2044	64.2321	1324.59	137.879	121.668	919.599	50.9543	84.4202	889.822	135.057
18	0.075	-115.131	1542.22	-47.0197	44.4363	1365.67	-142.829	92.8156	1147.75	144.652	168.699	843.401	43.3039	97.4815	1023.36	162.581	34.4539	1483.46	67.2161	64.2377	1324.6	137.888	121.671	919.606	50.9821	84.4322	889.816	135.071
19	0.079	-115.122	1542.22	-47.0254	44.4576	1365.61	-142.805	92.8199	1147.76	144.673	168.711	843.41	43.3374	97.4868	1023.36	162.601	34.4605	1483.47	67.216	64.2488	1324.6	137.901	121.677	919.609	51.0216	84.4436	889.818	135.096
20	0.083	-115.108	1542.22	-47.0286	44.4638	1365.59	-142.804	92.8317	1147.77	144.691	168.715	843.408	43.3554	97.4922	1023.37	162.618	34.4646	1483.47	67.215	64.2511	1324.6	137.905	121.698	919.621	51.0521	84.4569	889.807	135.112
21	0.088	-115.105	1542.22	-47.042	44.4579	1365.58	-142.823	92.8315	1147.79	144.702	168.732	843.413	43.3736	97.5055	1023.37	162.637	34.4783	1483.47	67.2067	64.2582	1324.6	137.903	121.717	919.639	51.0697	84.4705	889.812	135.123
22	0.092	-115.099	1542.22	-47.0455	44.4654	1365.58	-142.833	92.8451	1147.78	144.702	168.75	843.422	43.391	97.5149	1023.38	162.641	34.4879	1483.47	67.1966	64.2661	1324.61	137.899	121.735	919.645	51.0812	84.4795	889.813	135.133
23	0.096	-115.092	1542.22	-47.0515	44.4663	1365.58	-142.823	92.8594	1147.78	144.702	168.756	843.416	43.4035	97.5263	1023.38	162.654	34.4917	1483.47	67.1848	64.2788	1324.6	137.897	121.744	919.636	51.0942	84.5067	889.81	135.149
24	0.1	-115.08	1542.22	-47.0556	44.4601	1365.57	-142.828	92.8616	1147.78	144.713	168.771	843.427	43.4257	97.5418	1023.39	162.668	34.5016	1483.47	67.1779	64.2865	1324.61	137.89	121.745	919.628	51.1089	84.5083	889.813	135.153
25	0.104	-115.071	1542.23	-47.0558	44.4636	1365.57	-142.824	92.8601	1147.79	144.714	168.778	843.44	43.444	97.5452	1023.41	162.686	34.5044	1483.47	67.1815	64.2951	1324.63	137.9	121.738	919.623	51.1263	84.5284	889.814	135.183
